<svg width="875" height="779" xmlns="http://www.w3.org/2000/svg">
 <defs>
  <filter id="svg_30_blur">
   <feGaussianBlur stdDeviation="0" in="SourceGraphic"/>
  </filter>
 </defs>
 <g>
  <title>background</title>
  <rect fill="none" id="canvas_background" height="781" width="877" y="-1" x="-1"/>
 </g>
 <g>
  <title>Layer 1</title>
  <g fill="#00d2dc" id="svg_1">
   <g id="svg_2">
    <g transform="rotate(-24, 420.5, 252.502)" id="svg_3">
     <path id="svg_4" fill="#00d2dc" d="m669,164.322998c0,-35.416992 -28.712036,-64.128998 -64.129028,-64.128998c-7.815979,0 -15.271973,1.468002 -22.198975,4.028c-38.120972,-41.873001 -93.067993,-68.156998 -154.156006,-68.156998c-63.696991,0 -120.682007,28.605988 -158.911987,73.634995c-9.753021,-5.990997 -21.190002,-9.505997 -33.475006,-9.505997c-35.416992,0 -64.128998,28.711014 -64.128998,64.128998c0,30.166016 20.856003,55.397003 48.915009,62.238007c-0.503998,5.912994 -0.819,11.879974 -0.819,17.923981c0,113.345001 90.494995,205.491028 203.166992,208.286987c15.27002,10.199036 33.608002,16.165039 53.348999,16.165039c44.32196,0 81.542053,-30.016998 92.695007,-70.801025c41.55896,-38.100983 67.627991,-92.825989 67.627991,-153.651001c0,-8.065002 -0.505005,-16.006989 -1.395996,-23.833008c19.934021,-10.877991 33.460999,-32.021973 33.460999,-56.328979z"/>
    </g>
    <g transform="rotate(-24, 379.372, 305.91)" id="svg_5">
     <g id="svg_6">
      <path id="svg_7" fill="#0096d2" d="m474.983276,464.398438c-94.000977,-12.381958 -168.815918,-88.945953 -179.301941,-183.177948c-3.697998,-33.235992 0.61499,-64.990997 11.049988,-93.82901c7.487,-20.690994 0.151978,-44.388992 -18.500977,-56.061005c-0.154022,-0.097 -0.309021,-0.192001 -0.46405,-0.287994c-4.817993,-2.958008 -10.050964,-5.300995 -15.589966,-6.927002c-0.231018,-0.067001 -0.468994,-0.115005 -0.701019,-0.179993c-2.301971,-0.647003 -4.666992,-1.137009 -7.06601,-1.524017c-0.632996,-0.099991 -1.263,-0.207993 -1.901001,-0.289993c-2.691986,-0.349991 -5.422974,-0.584 -8.212982,-0.584c-35.415985,0.001999 -64.128006,28.713013 -64.128006,64.131012c0,30.165985 20.856003,55.397003 48.915024,62.238007c-0.504028,5.912994 -0.819031,11.880005 -0.819031,17.924011c0,113.344971 90.494995,205.490967 203.167023,208.286926c15.269989,10.199036 33.608002,16.165039 53.348969,16.165039c29.71106,0 56.184021,-13.528992 73.799011,-34.707031c-28.906982,9.612061 -60.578003,13.171997 -93.595032,8.822998z"/>
     </g>
    </g>
    <g transform="rotate(-24, 453.856, 228.875)" id="svg_8">
     <path id="svg_9" fill="#beebeb" d="m538.023682,156.729324c-15.424988,0 -29.488037,6.974991 -40.129028,18.436996c-8.324951,8.968002 -20.30896,13.626999 -32.544983,13.626999l-2.866974,0c-12.047028,0 -23.275024,-5.102005 -32.173004,-13.222992c-12.940002,-11.811005 -30.192993,-18.974014 -49.125,-18.839005c-38.226013,0.272003 -70.532013,31.880997 -71.591003,70.093018c-1.131012,40.780975 31.591003,74.194977 72.117004,74.194977c2.487,0 91.130005,-0.371979 139.146973,-0.573975c19.763,-0.083008 39.057007,-5.718018 55.771973,-16.261017c13.153076,-13.234985 21.516052,-33.100006 21.516052,-55.309998c-0.001038,-39.845001 -26.91803,-72.145004 -60.122009,-72.145004z"/>
    </g>
    <g transform="rotate(-24, 520.668, 339.523)" id="svg_10">
     <circle id="svg_11" r="96.194" fill="#beebeb" cy="339.523487" cx="520.66781"/>
    </g>
    <g transform="rotate(-24, 508.106, 350.085)" id="svg_12">
     <path id="svg_13" fill="#00d2dc" d="m547.925598,425.706787c-53.126038,0 -96.194,-43.067993 -96.194,-96.194c0,-28.200012 12.209991,-53.485016 31.541962,-71.080017c-32.805969,15.320007 -55.589966,48.515015 -55.589966,87.112c0,53.126007 43.067017,96.194 96.19397,96.194c24.927002,0 47.564026,-9.561981 64.653076,-25.11499c-12.350037,5.768005 -26.075073,9.083008 -40.605042,9.083008z"/>
    </g>
    <g transform="rotate(-24, 387.946, 258.219)" id="svg_14">
     <circle id="svg_15" r="24.047958" fill="#0096d2" cy="258.219199" cx="387.945973"/>
    </g>
    <g transform="rotate(-24, 534.408, 193.01)" id="svg_16">
     <circle id="svg_17" r="24.047974" fill="#0096d2" cy="193.009963" cx="534.408315"/>
    </g>
    <g transform="rotate(-24, 395.667, 239.426)" id="svg_18">
     <circle id="svg_19" r="12.024002" fill="#fff" cy="239.42618" cx="395.666644"/>
    </g>
    <g transform="rotate(-24, 541.454, 174.518)" id="svg_20">
     <circle id="svg_21" r="12.024002" fill="#fff" cy="174.517512" cx="541.453881"/>
    </g>
    <g transform="rotate(-24, 216.203, 246.937)" id="svg_22">
     <circle id="svg_23" r="32.065002" fill="#00d2dc" cy="246.936914" cx="216.203099"/>
    </g>
   </g>
   <g transform="rotate(-24, 420.5, 252.502)" id="svg_24" fill="#283c64">
    <path id="svg_25" d="m677,164.322998c0,-39.772003 -32.356995,-72.128998 -72.129028,-72.128998c-6.769958,0 -13.437988,0.942993 -19.878967,2.787994c-1.13501,-1.186005 -2.279968,-2.36499 -3.444031,-3.528992c-40.875977,-40.876007 -95.223999,-63.388 -153.031982,-63.388c-61.373993,0 -119.669983,26.003998 -160.716003,71.494995c-9.750977,-4.770996 -20.570984,-7.365997 -31.67099,-7.365997c-39.772003,-0.001007 -72.128998,32.356003 -72.128998,72.128998c0,31.473022 20.270996,58.286011 48.436005,68.112c-0.220001,4.009003 -0.33902,8.041992 -0.33902,12.049011c0,56.78299 21.829041,110.440002 61.466003,151.084991c39.161011,40.157013 91.43103,63.25705 147.348022,65.188995c16.122009,10.239014 35.230988,16.17804 55.702026,16.17804c47.157959,0 87.09198,-31.494019 99.891968,-74.552032c21.22998,-19.901001 37.983032,-43.406982 49.786987,-69.895996c12.371033,-27.761993 18.644043,-57.371002 18.644043,-88.003998c0,-6.583008 -0.307007,-13.117004 -0.884033,-19.595001c20.670044,-13.368988 32.947998,-35.852005 32.947998,-60.56601zm-200.386963,296.613037c-25.601013,0 -48.686035,-10.968994 -64.812012,-28.449036c19.078979,6.182007 39.894989,9.382019 61.491943,9.382019c1.727051,0 3.46106,-0.020996 5.197021,-0.062012c23.15802,-0.54599 45.385986,-4.734985 65.494995,-12.220001c-16.190979,19.15799 -40.382935,31.34903 -67.371948,31.34903zm81.895996,-55.471039c-23.091064,12.612 -50.871033,19.649994 -80.39502,20.346008c-29.855011,0.700989 -58.127991,-5.132996 -81.915009,-16.862c-4.996002,-11.052002 -7.778992,-23.311005 -7.778992,-36.208008c0,-48.630005 39.562988,-88.192993 88.193024,-88.192993s88.19397,39.562988 88.19397,88.192993c0,11.558014 -2.239014,22.601013 -6.297974,32.723999zm53.167969,-79.488983c-7.934998,17.807983 -18.296021,34.154999 -30.895996,48.835999c0.014038,-0.689026 0.026001,-1.378021 0.026001,-2.070007c0,-57.453003 -46.740967,-104.192993 -104.19397,-104.192993c-33.149017,0 -62.730042,15.561981 -81.827026,39.761993c-2.104004,0.208008 -4.22998,0.319 -6.350006,0.319c-17.470978,0 -33.802002,-6.89801 -45.985992,-19.424988c-12.179016,-12.520996 -18.619019,-29.052002 -18.134003,-46.548035c0.45401,-16.393982 7.363983,-31.941956 19.457001,-43.778992c12.09198,-11.835983 27.786987,-18.418991 44.194,-18.53598c0.154999,-0.001007 0.30899,-0.001999 0.46402,-0.001999c16.036987,0 31.366974,5.938004 43.210968,16.750015c10.820007,9.875977 24.161011,15.315002 37.566986,15.315002l2.866028,0c14.861023,0 28.859985,-5.899017 38.408997,-16.184021c9.505981,-10.240997 21.674988,-15.880005 34.265991,-15.880005c28.73999,0 52.120972,28.775024 52.120972,64.144989c0,19.295013 -6.994995,37.399017 -19.190979,49.670013c-3.113953,3.134003 -3.098999,8.199005 0.034973,11.313995c3.13501,3.114014 8.200073,3.097992 11.314026,-0.035004c15.152039,-15.246002 23.84198,-37.460999 23.84198,-60.949005c0,-44.191986 -30.55896,-80.144989 -68.120972,-80.144989c-17.089966,0 -33.424011,7.455994 -45.992004,20.994995c-6.531006,7.035004 -16.255981,11.070007 -26.682983,11.070007l-2.866028,0c-9.404999,0 -18.915985,-3.95401 -26.780975,-11.132004c-14.803009,-13.512009 -33.957001,-20.932007 -53.996002,-20.932007c-0.192017,0 -0.387024,0.001007 -0.580017,0.001999c-42.671997,0.304001 -78.349976,35.238007 -79.531006,77.872009c-0.60498,21.85199 7.44101,42.501984 22.65802,58.147003c14.25,14.649994 33.041992,23.136993 53.291992,24.162018c-7.563995,14.426971 -11.85199,30.830994 -11.85199,48.219971c0,26.963013 10.294983,51.56601 27.159973,70.086029c-43.428986,-6.258026 -83.458984,-26.535004 -114.561951,-58.430023c-36.706024,-37.639984 -56.921021,-87.32901 -56.921021,-139.914978c0,-2.81601 0.062012,-5.64502 0.179016,-8.468018c2.580994,0.281006 5.198975,0.434998 7.854004,0.434998c4.888,0 9.774963,-0.492981 14.527985,-1.464996c4.32901,-0.886017 7.119995,-5.113007 6.233978,-9.44101s-5.110992,-7.117981 -9.440979,-6.234009c-3.699005,0.757019 -7.507996,1.141022 -11.320984,1.141022c-30.950027,0 -56.129028,-25.178986 -56.129028,-56.128998s25.179001,-56.128998 56.129028,-56.128998c17.919983,0 34.913971,8.671997 45.457977,23.196991c2.596008,3.576004 7.598999,4.369003 11.174011,1.774002c3.574982,-2.595993 4.369995,-7.597992 1.773987,-11.173996c-3.755005,-5.173004 -8.149994,-9.765991 -13.028992,-13.705994c37.905975,-40.894012 91.078003,-64.220009 147.009979,-64.220009c110.512024,0 200.419006,89.907997 200.419006,200.419014c0.001038,28.371979 -5.805969,55.789978 -17.257996,81.48999zm29.992004,-119.249023c-6.281006,-35.905975 -21.515991,-69.453995 -44.583008,-97.987976c2.567017,-0.356003 5.164978,-0.546005 7.784973,-0.546005c30.950073,0 56.129028,25.180008 56.129028,56.128998c0,16.561996 -7.088013,31.836014 -19.330994,42.404984z"/>
    <path id="svg_26" d="m236.128998,124.257996c-22.09201,0 -40.063995,17.973007 -40.063995,40.063995s17.972992,40.063995 40.063995,40.063995s40.063995,-17.972992 40.063995,-40.063995s-17.971985,-40.063995 -40.063995,-40.063995zm0,64.128998c-13.269012,0 -24.063995,-10.794998 -24.063995,-24.064011s10.794983,-24.06398 24.063995,-24.06398s24.063995,10.794998 24.063995,24.06398s-10.794983,24.064011 -24.063995,24.064011z"/>
    <path id="svg_27" d="m412.484009,236.484009c-4.41803,0 -8,3.58197 -8,8c0,8.848969 -7.199036,16.047974 -16.048035,16.047974s-16.047974,-7.199005 -16.047974,-16.047974s7.198975,-16.048035 16.047974,-16.048035c4.41803,0 8,-3.58197 8,-8s-3.58197,-8 -8,-8c-17.67099,0 -32.047974,14.377014 -32.047974,32.048035s14.376984,32.047974 32.047974,32.047974s32.048004,-14.376984 32.048004,-32.047974c0,-4.419006 -3.582001,-8 -7.999969,-8z"/>
    <path id="svg_28" d="m572.807007,236.484009c-4.417969,0 -8,3.58197 -8,8c0,8.848969 -7.198975,16.047974 -16.047974,16.047974s-16.049011,-7.199005 -16.049011,-16.047974s7.200012,-16.048035 16.049011,-16.048035c4.417969,0 8,-3.58197 8,-8s-3.582031,-8 -8,-8c-17.671997,0 -32.049011,14.377014 -32.049011,32.048035s14.377014,32.047974 32.049011,32.047974c17.671021,0 32.047974,-14.376984 32.047974,-32.047974c0,-4.419006 -3.582031,-8 -8,-8z"/>
    <path id="svg_29" d="m501.618042,309.938995c-6.881042,4.513 -13.312012,6.705994 -19.661011,6.705994s-12.780029,-2.192993 -19.661011,-6.705994c-3.694,-2.42099 -8.653015,-1.390991 -11.076996,2.303009c-2.423004,3.695007 -1.392029,8.653992 2.302979,11.076996c9.437012,6.187988 19.003998,9.325989 28.436005,9.325989s18.999023,-3.138 28.436035,-9.325989c3.69397,-2.423004 4.725952,-7.381989 2.302979,-11.076996s-7.384033,-4.725006 -11.078979,-2.303009z"/>
   </g>
  </g>
  <text opacity="0.73" filter="url(#svg_30_blur)" font-weight="bold" font-style="italic" xml:space="preserve" text-anchor="start" font-family="'Trebuchet MS', Gadget, sans-serif" font-size="134" id="svg_30" y="568" x="118" stroke="#000" fill="#00d2dc">Imagen</text>
  <text opacity="0.73" filter="url(#svg_30_blur)" font-weight="bold" font-style="italic" xml:space="preserve" text-anchor="start" font-family="'Trebuchet MS', Gadget, sans-serif" font-size="134" id="svg_31" y="567" x="609" stroke="#000" fill="#00d2dc">no</text>
  <text opacity="0.73" filter="url(#svg_30_blur)" font-weight="bold" font-style="italic" xml:space="preserve" text-anchor="start" font-family="'Trebuchet MS', Gadget, sans-serif" font-size="134" id="svg_32" y="714" x="120" stroke="#000" fill="#0096d2">disponible</text>
 </g>
</svg>