<?xml version="1.0" encoding="iso-8859-1"?>
<!-- Generator: Adobe Illustrator 18.0.0, SVG Export Plug-In . SVG Version: 6.00 Build 0)  -->
<!DOCTYPE svg PUBLIC "-//W3C//DTD SVG 1.1//EN" "http://www.w3.org/Graphics/SVG/1.1/DTD/svg11.dtd">
<svg version="1.1" id="Capa_1" xmlns="http://www.w3.org/2000/svg" xmlns:xlink="http://www.w3.org/1999/xlink" x="0px" y="0px"
	 viewBox="0 0 325 325" style="enable-background:new 0 0 325 325;" xml:space="preserve">
<path d="M298.536,43H281.5V17.162C281.5,7.378,273.882,0,263.778,0H26.464C16.391,0,8.5,7.538,8.5,17.162V79.91
	C8.5,89.885,16.559,98,26.464,98h237.314c9.772,0,17.722-8.115,17.722-18.09V55h17.036c3.456,0,5.964,2.186,5.964,5.197v66.388
	c0,3.087-2.564,5.415-5.964,5.415H160.431c-9.887,0-17.931,8.033-17.931,17.907V160h-8.898c-2.557,0-4.833,1.62-5.67,4.036
	l-15.103,43.601c-0.219,0.632-0.33,1.296-0.33,1.964V319c0,3.314,2.687,6,6,6h59c3.314,0,6-2.686,6-6V209.601
	c0-0.646-0.105-1.287-0.309-1.899l-14.548-43.601c-0.817-2.449-3.109-4.101-5.691-4.101H154.5v-10.093
	c0-3.257,2.66-5.907,5.931-5.907h138.105c10.073,0,17.964-7.649,17.964-17.415V60.197C316.5,50.554,308.609,43,298.536,43z
	 M269.5,79.91c0,2.929-2.188,6.09-5.722,6.09H26.464c-3.233,0-5.964-2.789-5.964-6.09V17.162c0-3.039,2.452-5.162,5.964-5.162
	h237.314c3.422,0,5.722,2.074,5.722,5.162V79.91z M171.5,210.575V313h-47V210.61L137.874,172h20.755L171.5,210.575z"/>
<g>
</g>
<g>
</g>
<g>
</g>
<g>
</g>
<g>
</g>
<g>
</g>
<g>
</g>
<g>
</g>
<g>
</g>
<g>
</g>
<g>
</g>
<g>
</g>
<g>
</g>
<g>
</g>
<g>
</g>
</svg>
